<?xml version="1.0" encoding="utf-8"?>
<!-- Generator: Adobe Illustrator 21.0.2, SVG Export Plug-In . SVG Version: 6.00 Build 0)  -->
<svg version="1.1" xmlns="http://www.w3.org/2000/svg" xmlns:xlink="http://www.w3.org/1999/xlink" x="0px" y="0px"
	 viewBox="0 0 841 1190" style="enable-background:new 0 0 841 1190;" xml:space="preserve">
<style type="text/css">
	.st0{display:none;}
	.st1{display:inline;fill-rule:evenodd;clip-rule:evenodd;fill:#19B9C9;}
	.st2{display:inline;fill-rule:evenodd;clip-rule:evenodd;fill:#FFFFFF;}
	.st3{display:inline;}
	.st4{display:inline;fill:#19B9C9;}
	.st5{display:inline;fill:#F9FBFB;}
	.st6{display:inline;fill-rule:evenodd;clip-rule:evenodd;}
	.st7{display:inline;fill-rule:evenodd;clip-rule:evenodd;fill:#F9FBFB;}
	.st8{fill:#F9FBFB;}
</style>
<g id="Layer_1" class="st0">
	<rect x="-1.3" y="542" class="st1" width="842" height="246"/>
	<rect x="58" y="54.4" class="st2" width="544.5" height="181.3"/>
	<path class="st3" d="M227.5,206h5.8l-1.8-4.7c-0.5-1.4-0.9-2.6-1.2-3.5c-0.2,1.1-0.5,2.2-0.9,3.3L227.5,206z M222.6,212.9l6.5-16.9
		h2.5l6.9,16.9h-2.5l-2-5.1h-7.1l-1.8,5.1H222.6z M210.8,196h2.2v7.4c1,0,1.7-0.2,2.1-0.6c0.4-0.4,0.9-1.4,1.6-2.9
		c0.4-1.1,0.8-1.9,1.2-2.3c0.3-0.5,0.7-0.8,1.3-1.2c0.5-0.3,1.2-0.5,1.8-0.5c0.9,0,1.3,0,1.4,0v1.9c-0.1,0-0.2,0-0.4,0
		c-0.2,0-0.4,0-0.4,0c-0.7,0-1.3,0.2-1.6,0.5c-0.4,0.4-0.8,1.1-1.2,2.2c-0.6,1.4-1,2.3-1.4,2.7c-0.4,0.4-0.8,0.7-1.4,0.9
		c1.1,0.3,2.2,1.3,3.2,3l3.5,5.6h-2.8l-2.8-4.6c-0.8-1.3-1.4-2.1-1.9-2.6c-0.5-0.5-1.2-0.7-2-0.7v7.9h-2.2V196z M198,206h5.8
		l-1.8-4.7c-0.5-1.4-0.9-2.6-1.2-3.5c-0.2,1.1-0.5,2.2-0.9,3.3L198,206z M193.2,212.9l6.5-16.9h2.5l6.9,16.9h-2.5l-2-5.1h-7.1
		l-1.8,5.1H193.2z"/>
	<path class="st4" d="M226,442.3h5.8l-1.8-4.7c-0.5-1.4-0.9-2.6-1.2-3.5c-0.2,1.1-0.5,2.2-0.9,3.3L226,442.3z M221.1,449.2l6.5-16.9
		h2.5l6.9,16.9h-2.5l-2-5.1h-7.1l-1.8,5.1H221.1z M209.3,432.3h2.2v7.4c1,0,1.7-0.2,2.1-0.6c0.4-0.4,0.9-1.4,1.6-2.9
		c0.4-1.1,0.8-1.9,1.2-2.3c0.3-0.5,0.7-0.8,1.3-1.2c0.5-0.3,1.2-0.5,1.8-0.5c0.9,0,1.3,0,1.4,0v1.9c-0.1,0-0.2,0-0.4,0
		c-0.2,0-0.4,0-0.4,0c-0.7,0-1.3,0.2-1.6,0.5c-0.4,0.4-0.8,1.1-1.2,2.2c-0.6,1.4-1,2.3-1.4,2.7c-0.4,0.4-0.8,0.7-1.4,0.9
		c1.1,0.3,2.2,1.3,3.2,3l3.5,5.6h-2.8l-2.8-4.6c-0.8-1.3-1.4-2.1-1.9-2.6c-0.5-0.5-1.2-0.7-2-0.7v7.9h-2.2V432.3z M196.5,442.3h5.8
		l-1.8-4.7c-0.5-1.4-0.9-2.6-1.2-3.5c-0.2,1.1-0.5,2.2-0.9,3.3L196.5,442.3z M191.6,449.2l6.5-16.9h2.5l6.9,16.9h-2.5l-2-5.1h-7.1
		l-1.8,5.1H191.6z"/>
	<path class="st5" d="M228.6,716.9h5.8l-1.8-4.7c-0.5-1.4-0.9-2.6-1.2-3.5c-0.2,1.1-0.5,2.2-0.9,3.3L228.6,716.9z M223.7,723.8
		l6.5-16.9h2.5l6.9,16.9H237l-2-5.1h-7.1l-1.8,5.1H223.7z M211.9,706.9h2.2v7.4c1,0,1.7-0.2,2.1-0.6c0.4-0.4,0.9-1.4,1.6-2.9
		c0.4-1.1,0.8-1.9,1.2-2.3c0.3-0.5,0.7-0.8,1.3-1.2c0.5-0.3,1.2-0.5,1.8-0.5c0.9,0,1.3,0,1.4,0v1.9c-0.1,0-0.2,0-0.4,0
		c-0.2,0-0.4,0-0.4,0c-0.7,0-1.3,0.2-1.6,0.5c-0.4,0.4-0.8,1.1-1.2,2.2c-0.6,1.4-1,2.3-1.4,2.7c-0.4,0.4-0.8,0.7-1.4,0.9
		c1.1,0.3,2.2,1.3,3.2,3l3.5,5.6h-2.8l-2.8-4.6c-0.8-1.3-1.4-2.1-1.9-2.6c-0.5-0.5-1.2-0.7-2-0.7v7.9h-2.2V706.9z M199.1,716.9h5.8
		l-1.8-4.7c-0.5-1.4-0.9-2.6-1.2-3.5c-0.2,1.1-0.5,2.2-0.9,3.3L199.1,716.9z M194.2,723.8l6.5-16.9h2.5l6.9,16.9h-2.5l-2-5.1h-7.1
		l-1.8,5.1H194.2z"/>
	<path class="st3" d="M348.9,204.1h4.4c1.4,0,2.5-0.3,3.1-0.8c0.6-0.5,0.9-1.3,0.9-2.3c0-0.7-0.2-1.3-0.5-1.8
		c-0.4-0.5-0.8-0.8-1.4-1c-0.4-0.1-1.1-0.1-2.1-0.1h-4.3V204.1z M346.7,212.9V196h6.4c1.1,0,2,0,2.6,0.2c0.8,0.1,1.5,0.4,2.1,0.8
		c0.6,0.4,1,0.9,1.3,1.6c0.4,0.7,0.5,1.5,0.5,2.3c0,1.4-0.4,2.6-1.4,3.6c-0.9,1-2.6,1.5-5,1.5h-4.3v6.9H346.7z M333,196h2.2v7.4
		c1,0,1.7-0.2,2.1-0.6c0.4-0.4,0.9-1.4,1.6-2.9c0.4-1.1,0.8-1.9,1.2-2.3c0.3-0.5,0.7-0.8,1.3-1.2c0.5-0.3,1.2-0.5,1.8-0.5
		c0.9,0,1.3,0,1.4,0v1.9c-0.1,0-0.2,0-0.4,0c-0.2,0-0.4,0-0.4,0c-0.7,0-1.3,0.2-1.6,0.5c-0.4,0.4-0.8,1.1-1.2,2.2
		c-0.6,1.4-1,2.3-1.4,2.7c-0.4,0.4-0.8,0.7-1.4,0.9c1.1,0.3,2.2,1.3,3.2,3l3.5,5.6H342l-2.8-4.6c-0.8-1.3-1.4-2.1-1.9-2.6
		c-0.5-0.5-1.2-0.7-2-0.7v7.9H333V196z M320.5,203.5h-4.8c-1,0-1.8-0.1-2.4-0.3c-0.6-0.2-1-0.5-1.3-1c-0.3-0.4-0.4-1-0.4-1.5
		c0-0.8,0.3-1.5,0.9-2c0.6-0.5,1.5-0.8,2.7-0.8h5.3V203.5z M322.7,212.9V196h-7.5c-1.5,0-2.6,0.1-3.4,0.4c-0.8,0.3-1.4,0.8-1.9,1.6
		c-0.5,0.8-0.7,1.6-0.7,2.5c0,1.2,0.4,2.2,1.2,3c0.8,0.8,2,1.3,3.6,1.6c-0.6,0.3-1.1,0.6-1.4,0.8c-0.6,0.6-1.3,1.3-1.8,2.2l-2.9,4.6
		h2.8l2.2-3.5c0.7-1,1.2-1.8,1.6-2.3c0.4-0.5,0.8-0.9,1.2-1.1c0.3-0.2,0.7-0.4,1-0.4c0.2,0,0.7-0.1,1.2-0.1h2.6v7.5H322.7z
		 M292.4,196h2v13.4l9-13.4h2.2v16.9h-2v-13.4l-9,13.4h-2.2V196z M272.7,212.9V196h3.4l4,12c0.4,1.1,0.6,1.9,0.8,2.5
		c0.2-0.6,0.5-1.5,0.9-2.7l4.1-11.8h3v16.9h-2.1v-14.1l-4.9,14.1h-2l-4.9-14.4v14.4H272.7z M257,212.9V196h12.2v2h-10v5.2h9.3v2
		h-9.3v5.8h10.4v2H257z M250.6,198h-5.9v0.9c0,1.4-0.1,3.4-0.4,5.9c-0.3,2.5-0.8,4.6-1.5,6.2h7.8V198z M242.6,196h10.3v14.9h1.5v5.9
		h-2v-3.9h-11.2v3.9h-2v-5.9h1.3c1.4-2.1,2.1-6.2,2.1-12.4V196z"/>
	<path class="st4" d="M347.4,440.3h4.4c1.4,0,2.5-0.3,3.1-0.8c0.6-0.5,0.9-1.3,0.9-2.3c0-0.7-0.2-1.3-0.5-1.8
		c-0.4-0.5-0.8-0.8-1.4-1c-0.4-0.1-1.1-0.1-2.1-0.1h-4.3V440.3z M345.2,449.2v-16.9h6.4c1.1,0,2,0,2.6,0.2c0.8,0.1,1.5,0.4,2.1,0.8
		c0.6,0.4,1,0.9,1.3,1.6c0.4,0.7,0.5,1.5,0.5,2.3c0,1.4-0.4,2.6-1.4,3.6c-0.9,1-2.6,1.5-5,1.5h-4.3v6.9H345.2z M331.4,432.3h2.2v7.4
		c1,0,1.7-0.2,2.1-0.6c0.4-0.4,0.9-1.4,1.6-2.9c0.4-1.1,0.8-1.9,1.2-2.3c0.3-0.5,0.7-0.8,1.3-1.2c0.5-0.3,1.2-0.5,1.8-0.5
		c0.9,0,1.3,0,1.4,0v1.9c-0.1,0-0.2,0-0.4,0c-0.2,0-0.4,0-0.4,0c-0.7,0-1.3,0.2-1.6,0.5c-0.4,0.4-0.8,1.1-1.2,2.2
		c-0.6,1.4-1,2.3-1.4,2.7c-0.4,0.4-0.8,0.7-1.4,0.9c1.1,0.3,2.2,1.3,3.2,3l3.5,5.6h-2.8l-2.8-4.6c-0.8-1.3-1.4-2.1-1.9-2.6
		c-0.5-0.5-1.2-0.7-2-0.7v7.9h-2.2V432.3z M318.9,439.8h-4.8c-1,0-1.8-0.1-2.4-0.3c-0.6-0.2-1-0.5-1.3-1c-0.3-0.4-0.4-1-0.4-1.5
		c0-0.8,0.3-1.5,0.9-2c0.6-0.5,1.5-0.8,2.7-0.8h5.3V439.8z M321.2,449.2v-16.9h-7.5c-1.5,0-2.6,0.1-3.4,0.4
		c-0.8,0.3-1.4,0.8-1.9,1.6c-0.5,0.8-0.7,1.6-0.7,2.5c0,1.2,0.4,2.2,1.2,3c0.8,0.8,2,1.3,3.6,1.6c-0.6,0.3-1.1,0.6-1.4,0.8
		c-0.6,0.6-1.3,1.3-1.8,2.2l-2.9,4.6h2.8l2.2-3.5c0.7-1,1.2-1.8,1.6-2.3c0.4-0.5,0.8-0.9,1.2-1.1c0.3-0.2,0.7-0.4,1-0.4
		c0.2,0,0.7-0.1,1.2-0.1h2.6v7.5H321.2z M290.9,432.3h2v13.4l9-13.4h2.2v16.9h-2v-13.4l-9,13.4h-2.2V432.3z M271.1,449.2v-16.9h3.4
		l4,12c0.4,1.1,0.6,1.9,0.8,2.5c0.2-0.6,0.5-1.5,0.9-2.7l4.1-11.8h3v16.9h-2.1v-14.1l-4.9,14.1h-2l-4.9-14.4v14.4H271.1z
		 M255.5,449.2v-16.9h12.2v2h-10v5.2h9.3v2h-9.3v5.8h10.4v2H255.5z M249.1,434.3h-5.9v0.9c0,1.4-0.1,3.4-0.4,5.9
		c-0.3,2.5-0.8,4.6-1.5,6.2h7.8V434.3z M241,432.3h10.3v14.9h1.5v5.9h-2v-3.9h-11.2v3.9h-2v-5.9h1.3c1.4-2.1,2.1-6.2,2.1-12.4V432.3
		z"/>
	<path class="st5" d="M350,714.9h4.4c1.4,0,2.5-0.3,3.1-0.8c0.6-0.5,0.9-1.3,0.9-2.3c0-0.7-0.2-1.3-0.5-1.8c-0.4-0.5-0.8-0.8-1.4-1
		c-0.4-0.1-1.1-0.1-2.1-0.1H350V714.9z M347.8,723.8v-16.9h6.4c1.1,0,2,0,2.6,0.2c0.8,0.1,1.5,0.4,2.1,0.8c0.6,0.4,1,0.9,1.3,1.6
		c0.4,0.7,0.5,1.5,0.5,2.3c0,1.4-0.4,2.6-1.4,3.6c-0.9,1-2.6,1.5-5,1.5H350v6.9H347.8z M334.1,706.9h2.2v7.4c1,0,1.7-0.2,2.1-0.6
		c0.4-0.4,0.9-1.4,1.6-2.9c0.4-1.1,0.8-1.9,1.2-2.3c0.3-0.5,0.7-0.8,1.3-1.2c0.5-0.3,1.2-0.5,1.8-0.5c0.9,0,1.3,0,1.4,0v1.9
		c-0.1,0-0.2,0-0.4,0c-0.2,0-0.4,0-0.4,0c-0.7,0-1.3,0.2-1.6,0.5c-0.4,0.4-0.8,1.1-1.2,2.2c-0.6,1.4-1,2.3-1.4,2.7
		c-0.4,0.4-0.8,0.7-1.4,0.9c1.1,0.3,2.2,1.3,3.2,3l3.5,5.6h-2.8l-2.8-4.6c-0.8-1.3-1.4-2.1-1.9-2.6c-0.5-0.5-1.2-0.7-2-0.7v7.9h-2.2
		V706.9z M321.5,714.4h-4.8c-1,0-1.8-0.1-2.4-0.3c-0.6-0.2-1-0.5-1.3-1c-0.3-0.4-0.4-1-0.4-1.5c0-0.8,0.3-1.5,0.9-2
		c0.6-0.5,1.5-0.8,2.7-0.8h5.3V714.4z M323.8,723.8v-16.9h-7.5c-1.5,0-2.6,0.1-3.4,0.4c-0.8,0.3-1.4,0.8-1.9,1.6
		c-0.5,0.8-0.7,1.6-0.7,2.5c0,1.2,0.4,2.2,1.2,3c0.8,0.8,2,1.3,3.6,1.6c-0.6,0.3-1.1,0.6-1.4,0.8c-0.6,0.6-1.3,1.3-1.8,2.2l-2.9,4.6
		h2.8l2.2-3.5c0.7-1,1.2-1.8,1.6-2.3c0.4-0.5,0.8-0.9,1.2-1.1c0.3-0.2,0.7-0.4,1-0.4c0.2,0,0.7-0.1,1.2-0.1h2.6v7.5H323.8z
		 M293.5,706.9h2v13.4l9-13.4h2.2v16.9h-2v-13.4l-9,13.4h-2.2V706.9z M273.7,723.8v-16.9h3.4l4,12c0.4,1.1,0.6,1.9,0.8,2.5
		c0.2-0.6,0.5-1.5,0.9-2.7l4.1-11.8h3v16.9h-2.1v-14.1l-4.9,14.1h-2l-4.9-14.4v14.4H273.7z M258.1,723.8v-16.9h12.2v2h-10v5.2h9.3v2
		h-9.3v5.8h10.4v2H258.1z M251.7,708.9h-5.9v0.9c0,1.4-0.1,3.4-0.4,5.9c-0.3,2.5-0.8,4.6-1.5,6.2h7.8V708.9z M243.6,706.9h10.3v14.9
		h1.5v5.9h-2v-3.9h-11.2v3.9h-2v-5.9h1.3c1.4-2.1,2.1-6.2,2.1-12.4V706.9z"/>
	<path class="st3" d="M363.9,206h5.8l-1.8-4.7c-0.5-1.4-0.9-2.6-1.2-3.5c-0.2,1.1-0.5,2.2-0.9,3.3L363.9,206z M359,212.9l6.5-16.9
		h2.5l6.9,16.9h-2.5l-2-5.1h-7.1l-1.8,5.1H359z"/>
	<path class="st4" d="M362.3,442.3h5.8l-1.8-4.7c-0.5-1.4-0.9-2.6-1.2-3.5c-0.2,1.1-0.5,2.2-0.9,3.3L362.3,442.3z M357.4,449.2
		l6.5-16.9h2.5l6.9,16.9h-2.5l-2-5.1h-7.1l-1.8,5.1H357.4z"/>
	<path class="st5" d="M364.9,716.9h5.8l-1.8-4.7c-0.5-1.4-0.9-2.6-1.2-3.5c-0.2,1.1-0.5,2.2-0.9,3.3L364.9,716.9z M360,723.8
		l6.5-16.9h2.5l6.9,16.9h-2.5l-2-5.1h-7.1l-1.8,5.1H360z"/>
	<path class="st3" d="M388.1,207l2.2,0.6c-0.5,1.8-1.3,3.2-2.5,4.2c-1.2,0.9-2.7,1.4-4.5,1.4c-1.8,0-3.3-0.4-4.4-1.1
		c-1.1-0.8-2-1.8-2.6-3.2c-0.6-1.4-0.9-2.9-0.9-4.5c0-1.8,0.3-3.3,1-4.6c0.7-1.3,1.6-2.3,2.9-3c1.3-0.7,2.6-1,4.1-1
		c1.7,0,3.1,0.4,4.2,1.3c1.2,0.8,2,2.1,2.4,3.6l-2.2,0.5c-0.4-1.2-1-2.1-1.7-2.7c-0.8-0.6-1.7-0.8-2.8-0.8c-1.3,0-2.4,0.3-3.3,0.9
		c-0.9,0.6-1.5,1.5-1.8,2.5c-0.4,1-0.5,2.1-0.5,3.2c0,1.4,0.2,2.7,0.6,3.8c0.4,1.1,1.1,1.9,1.9,2.4c0.9,0.5,1.8,0.8,2.9,0.8
		c1.3,0,2.3-0.4,3.2-1.1C387.2,209.5,387.8,208.4,388.1,207"/>
	<path class="st4" d="M386.6,443.3l2.2,0.6c-0.5,1.8-1.3,3.2-2.5,4.2c-1.2,0.9-2.7,1.4-4.5,1.4c-1.8,0-3.3-0.4-4.4-1.1
		c-1.1-0.8-2-1.8-2.6-3.2c-0.6-1.4-0.9-2.9-0.9-4.5c0-1.8,0.3-3.3,1-4.6c0.7-1.3,1.6-2.3,2.9-3c1.3-0.7,2.6-1,4.1-1
		c1.7,0,3.1,0.4,4.2,1.3c1.2,0.8,2,2.1,2.4,3.6l-2.2,0.5c-0.4-1.2-1-2.1-1.7-2.7c-0.8-0.6-1.7-0.8-2.8-0.8c-1.3,0-2.4,0.3-3.3,0.9
		c-0.9,0.6-1.5,1.5-1.8,2.5c-0.4,1-0.5,2.1-0.5,3.2c0,1.4,0.2,2.7,0.6,3.8c0.4,1.1,1.1,1.9,1.9,2.4c0.9,0.5,1.8,0.8,2.9,0.8
		c1.3,0,2.3-0.4,3.2-1.1C385.7,445.7,386.3,444.7,386.6,443.3"/>
	<path class="st5" d="M389.2,717.9l2.2,0.6c-0.5,1.8-1.3,3.2-2.5,4.2c-1.2,0.9-2.7,1.4-4.5,1.4c-1.8,0-3.3-0.4-4.4-1.1
		c-1.1-0.8-2-1.8-2.6-3.2c-0.6-1.4-0.9-2.9-0.9-4.5c0-1.8,0.3-3.3,1-4.6c0.7-1.3,1.6-2.3,2.9-3c1.3-0.7,2.6-1,4.1-1
		c1.7,0,3.1,0.4,4.2,1.3c1.2,0.8,2,2.1,2.4,3.6l-2.2,0.5c-0.4-1.2-1-2.1-1.7-2.7c-0.8-0.6-1.7-0.8-2.8-0.8c-1.3,0-2.4,0.3-3.3,0.9
		c-0.9,0.6-1.5,1.5-1.8,2.5c-0.4,1-0.5,2.1-0.5,3.2c0,1.4,0.2,2.7,0.6,3.8c0.4,1.1,1.1,1.9,1.9,2.4c0.9,0.5,1.8,0.8,2.9,0.8
		c1.3,0,2.3-0.4,3.2-1.1C388.3,720.3,388.9,719.3,389.2,717.9"/>
	<path class="st3" d="M440.2,196h2.2v16.9h-2.2V196z M427.7,211h4.1c1.4,0,2.4-0.2,3-0.7c0.6-0.5,0.9-1.2,0.9-2.3
		c0-0.7-0.2-1.3-0.6-1.8c-0.4-0.5-0.9-0.8-1.5-0.9c-0.6-0.1-1.6-0.2-3-0.2h-3V211z M425.5,196h2.2v7.2h4c2.6,0,4.4,0.5,5.2,1.5
		c0.8,1,1.3,2.1,1.3,3.3c0,1.3-0.4,2.5-1.3,3.4c-0.9,1-2.5,1.5-5,1.5h-6.4V196z M415.2,212.9V198h-5.6v-2h13.4v2h-5.6v14.9H415.2z
		 M394.2,204.7c0,2,0.5,3.6,1.7,4.8c1.1,1.2,2.5,1.7,4.1,1.7c1.7,0,3.1-0.6,4.2-1.8c1.1-1.2,1.6-2.9,1.6-5c0-1.4-0.2-2.6-0.7-3.6
		c-0.5-1-1.2-1.8-2.1-2.4c-0.9-0.6-1.9-0.8-3-0.8c-1.6,0-2.9,0.5-4.1,1.6C394.8,200.4,394.2,202.2,394.2,204.7 M391.9,204.7
		c0-2.8,0.8-5,2.3-6.6c1.5-1.6,3.4-2.4,5.8-2.4c1.6,0,3,0.4,4.2,1.1c1.3,0.8,2.2,1.8,2.9,3.1c0.7,1.3,1,2.9,1,4.5
		c0,1.7-0.4,3.3-1,4.6c-0.7,1.3-1.7,2.4-2.9,3.1c-1.3,0.7-2.6,1-4.1,1c-1.6,0-3-0.4-4.3-1.2c-1.3-0.8-2.2-1.8-2.9-3.1
		C392.2,207.6,391.9,206.2,391.9,204.7z"/>
	<path class="st4" d="M438.7,432.3h2.2v16.9h-2.2V432.3z M426.2,447.3h4.1c1.4,0,2.4-0.2,3-0.7c0.6-0.5,0.9-1.2,0.9-2.3
		c0-0.7-0.2-1.3-0.6-1.8c-0.4-0.5-0.9-0.8-1.5-0.9c-0.6-0.1-1.6-0.2-3-0.2h-3V447.3z M423.9,432.3h2.2v7.2h4c2.6,0,4.4,0.5,5.2,1.5
		c0.8,1,1.3,2.1,1.3,3.3c0,1.3-0.4,2.5-1.3,3.4c-0.9,1-2.5,1.5-5,1.5h-6.4V432.3z M413.7,449.2v-14.9h-5.6v-2h13.4v2h-5.6v14.9
		H413.7z M392.7,441c0,2,0.5,3.6,1.7,4.8c1.1,1.2,2.5,1.7,4.1,1.7c1.7,0,3.1-0.6,4.2-1.8c1.1-1.2,1.6-2.9,1.6-5
		c0-1.4-0.2-2.6-0.7-3.6c-0.5-1-1.2-1.8-2.1-2.4c-0.9-0.6-1.9-0.8-3-0.8c-1.6,0-2.9,0.5-4.1,1.6C393.2,436.7,392.7,438.5,392.7,441
		 M390.4,441c0-2.8,0.8-5,2.3-6.6c1.5-1.6,3.4-2.4,5.8-2.4c1.6,0,3,0.4,4.2,1.1c1.3,0.8,2.2,1.8,2.9,3.1c0.7,1.3,1,2.9,1,4.5
		c0,1.7-0.4,3.3-1,4.6c-0.7,1.3-1.7,2.4-2.9,3.1c-1.3,0.7-2.6,1-4.1,1c-1.6,0-3-0.4-4.3-1.2c-1.3-0.8-2.2-1.8-2.9-3.1
		C390.7,443.9,390.4,442.4,390.4,441z"/>
	<path class="st5" d="M441.3,706.9h2.2v16.9h-2.2V706.9z M428.8,721.9h4.1c1.4,0,2.4-0.2,3-0.7c0.6-0.5,0.9-1.2,0.9-2.3
		c0-0.7-0.2-1.3-0.6-1.8c-0.4-0.5-0.9-0.8-1.5-0.9c-0.6-0.1-1.6-0.2-3-0.2h-3V721.9z M426.5,706.9h2.2v7.2h4c2.6,0,4.4,0.5,5.2,1.5
		c0.8,1,1.3,2.1,1.3,3.3c0,1.3-0.4,2.5-1.3,3.4c-0.9,1-2.5,1.5-5,1.5h-6.4V706.9z M416.3,723.8v-14.9h-5.6v-2h13.4v2h-5.6v14.9
		H416.3z M395.3,715.6c0,2,0.5,3.6,1.7,4.8c1.1,1.2,2.5,1.7,4.1,1.7c1.7,0,3.1-0.6,4.2-1.8c1.1-1.2,1.6-2.9,1.6-5
		c0-1.4-0.2-2.6-0.7-3.6c-0.5-1-1.2-1.8-2.1-2.4c-0.9-0.6-1.9-0.8-3-0.8c-1.6,0-2.9,0.5-4.1,1.6
		C395.8,711.3,395.3,713.1,395.3,715.6 M393,715.6c0-2.8,0.8-5,2.3-6.6c1.5-1.6,3.4-2.4,5.8-2.4c1.6,0,3,0.4,4.2,1.1
		c1.3,0.8,2.2,1.8,2.9,3.1c0.7,1.3,1,2.9,1,4.5c0,1.7-0.4,3.3-1,4.6c-0.7,1.3-1.7,2.4-2.9,3.1c-1.3,0.7-2.6,1-4.1,1
		c-1.6,0-3-0.4-4.3-1.2c-1.3-0.8-2.2-1.8-2.9-3.1C393.3,718.5,393,717,393,715.6z"/>
	<rect x="176.4" y="203.3" class="st6" width="12.9" height="1.3"/>
	<rect x="174.8" y="439.6" class="st1" width="12.9" height="1.3"/>
	<rect x="177.4" y="714.2" class="st7" width="12.9" height="1.3"/>
	<rect x="448.7" y="203.3" class="st6" width="12.9" height="1.3"/>
	<rect x="447.2" y="439.6" class="st1" width="12.9" height="1.3"/>
	<rect x="449.8" y="714.2" class="st7" width="12.9" height="1.3"/>
	<path class="st3" d="M182.3,159.7v-25.3c0-3.6-1.6-5.3-4.9-5.3V165C180.7,165,182.3,163.3,182.3,159.7 M182.3,112.9v-17
		c0-3.6-1.6-5.3-4.9-5.3v27.6C180.7,118.2,182.3,116.5,182.3,112.9z M159.9,177.9V77.7h20.6c5,0,9.2,1.4,12.9,4.2
		c3.6,2.9,5.5,7.4,5.5,13.6v13.9c0,7-3.4,12-10.2,14.9c7.3,2.1,10.8,7,10.8,14.5v19.5c0,6.6-1.7,11.6-5.1,14.8
		c-3.4,3.3-7.5,5-12.3,5H159.9z"/>
	<path class="st4" d="M180.8,396v-25.3c0-3.6-1.6-5.3-4.9-5.3v35.9C179.2,401.3,180.8,399.6,180.8,396 M180.8,349.2v-17
		c0-3.6-1.6-5.3-4.9-5.3v27.6C179.2,354.5,180.8,352.8,180.8,349.2z M158.4,414.2V314H179c5,0,9.2,1.4,12.9,4.2
		c3.6,2.9,5.5,7.4,5.5,13.6v13.9c0,7-3.4,12-10.2,14.9c7.3,2.1,10.8,7,10.8,14.5v19.5c0,6.6-1.7,11.6-5.1,14.8
		c-3.4,3.3-7.5,5-12.3,5H158.4z"/>
	<path class="st5" d="M183.4,670.3v-25.3c0-3.6-1.6-5.3-4.9-5.3v35.9C181.8,675.6,183.4,673.9,183.4,670.3 M183.4,623.5v-17
		c0-3.6-1.6-5.3-4.9-5.3v27.6C181.8,628.7,183.4,627,183.4,623.5z M161,688.5V588.2h20.6c5,0,9.2,1.4,12.9,4.2
		c3.6,2.9,5.5,7.4,5.5,13.6v13.9c0,7-3.4,12-10.2,14.9c7.3,2.1,10.8,7,10.8,14.5v19.5c0,6.6-1.7,11.6-5.1,14.8
		c-3.4,3.3-7.5,5-12.3,5H161z"/>
	<path class="st3" d="M370.2,101.4l-8.8,30.8l-4.3,15.4v30.3h-13.4v-29.6c-0.3-2.7-1.4-8.1-3.4-15.9c-1.7-6.7-4.3-17.1-7.7-31.1
		h12.8l6,26.9l6.9-26.9H370.2z M331.2,111.3h-7.5v66.6h-13.4v-66.6h-7.5v-10h28.3V111.3z M269.2,101.4h13.4v64.2
		c0,1.5,0.8,2.3,2.3,2.3c1.5,0,2.2-0.8,2.2-2.3v-64.2h13.4v63.3c0,4.4-1.5,7.9-4.3,10.3c-3,2.4-6.7,3.6-11.2,3.6
		c-4.3,0-7.9-1.1-11-3.3c-3.1-2.2-4.7-5.7-4.7-10.5V101.4z M250.6,146.8l-1.9-22.9l-1.8,22.9H250.6z M267.2,177.9h-13.3l-2.3-20.6
		h-5.9l-2.3,20.6h-13.3l10-76.6h17L267.2,177.9z M228.8,177.9h-26.2v-76.6h26v9.8h-12.6v20.7h11.4v9.3h-11.4v26.9h12.8V177.9z"/>
	<path class="st4" d="M368.6,337.6l-8.8,30.8l-4.3,15.4v30.3h-13.4v-29.6c-0.3-2.7-1.4-8.1-3.4-15.9c-1.7-6.7-4.3-17.1-7.7-31.1
		h12.8l6,26.9l6.9-26.9H368.6z M329.6,347.6h-7.5v66.6h-13.4v-66.6h-7.5v-10h28.3V347.6z M267.6,337.6H281v64.2
		c0,1.5,0.8,2.3,2.3,2.3c1.5,0,2.2-0.8,2.2-2.3v-64.2h13.4V401c0,4.4-1.5,7.9-4.3,10.3c-3,2.4-6.7,3.6-11.2,3.6
		c-4.3,0-7.9-1.1-11-3.3c-3.1-2.2-4.7-5.7-4.7-10.5V337.6z M249,383l-1.9-22.9l-1.8,22.9H249z M265.6,414.2h-13.3l-2.3-20.6h-5.9
		l-2.3,20.6h-13.3l10-76.6h17L265.6,414.2z M227.3,414.2h-26.2v-76.6h26v9.8h-12.6v20.7h11.4v9.3h-11.4v26.9h12.8V414.2z"/>
	<path class="st5" d="M371.2,611.9l-8.8,30.8l-4.3,15.4v30.3h-13.4v-29.6c-0.3-2.7-1.4-8.1-3.4-15.9c-1.7-6.7-4.3-17.1-7.7-31.1
		h12.8l6,26.9l6.9-26.9H371.2z M332.2,621.8h-7.5v66.6h-13.4v-66.6h-7.5v-10h28.3V621.8z M270.2,611.9h13.4v64.2
		c0,1.5,0.8,2.3,2.3,2.3c1.5,0,2.2-0.8,2.2-2.3v-64.2h13.4v63.3c0,4.4-1.5,7.9-4.3,10.3c-3,2.4-6.7,3.6-11.2,3.6
		c-4.3,0-7.9-1.1-11-3.3c-3.1-2.2-4.7-5.7-4.7-10.5V611.9z M251.6,657.3l-1.9-22.9l-1.8,22.9H251.6z M268.2,688.5h-13.3l-2.3-20.6
		h-5.9l-2.3,20.6h-13.3l10-76.6h17L268.2,688.5z M229.9,688.5h-26.2v-76.6h26v9.8h-12.6v20.7h11.4v9.3h-11.4v26.9h12.8V688.5z"/>
	<polygon class="st3" points="433.4,177.9 417.8,177.9 417.8,121.6 408.7,177.9 396.7,177.9 386.2,121.6 386.2,177.9 372.5,177.9 
		372.5,77.7 395.1,77.7 403,129.7 410,77.7 433.4,77.7 	"/>
	<polygon class="st4" points="431.9,414.2 416.3,414.2 416.3,357.9 407.2,414.2 395.1,414.2 384.6,357.9 384.6,414.2 371,414.2 
		371,314 393.5,314 401.5,365.9 408.4,314 431.9,314 	"/>
	<polygon class="st5" points="434.5,688.5 418.9,688.5 418.9,632.2 409.8,688.5 397.7,688.5 387.2,632.2 387.2,688.5 373.6,688.5 
		373.6,588.2 396.1,588.2 404.1,640.2 411,588.2 434.5,588.2 	"/>
	<path class="st3" d="M482.2,164v-48.8c0-2.7-1.3-4-3.8-4v56.9C480.9,168.1,482.2,166.8,482.2,164 M465,177.9v-76.6h16.7
		c3.6,0,6.9,1.2,9.6,3.7c2.9,2.4,4.3,6.2,4.3,11.4v46.4c0,4.7-1.3,8.4-4,11.2c-2.6,2.6-5.9,3.9-9.8,3.9H465z M463,177.9h-26.2v-76.6
		h26v9.8h-12.6v20.7h11.4v9.3h-11.4v26.9H463V177.9z"/>
	<path class="st4" d="M480.6,400.3v-48.8c0-2.7-1.3-4-3.8-4v56.9C479.3,404.4,480.6,403,480.6,400.3 M463.4,414.2v-76.6h16.7
		c3.6,0,6.9,1.2,9.6,3.7c2.9,2.4,4.3,6.2,4.3,11.4v46.4c0,4.7-1.3,8.4-4,11.2c-2.6,2.6-5.9,3.9-9.8,3.9H463.4z M461.4,414.2h-26.2
		v-76.6h26v9.8h-12.6v20.7H460v9.3h-11.4v26.9h12.8V414.2z"/>
	<path class="st5" d="M483.2,674.6v-48.8c0-2.7-1.3-4-3.8-4v56.9C481.9,678.6,483.2,677.3,483.2,674.6 M466,688.5v-76.6h16.7
		c3.6,0,6.9,1.2,9.6,3.7c2.9,2.4,4.3,6.2,4.3,11.4v46.4c0,4.7-1.3,8.4-4,11.2c-2.6,2.6-5.9,3.9-9.8,3.9H466z M464,688.5h-26.2v-76.6
		h26v9.8h-12.6v20.7h11.4v9.3h-11.4v26.9H464V688.5z"/>
</g>
<g id="Layer_2">
	<path class="st8" d="M95.4,637.3v-25.3c0-3.6-1.6-5.3-4.9-5.3v35.9C93.8,642.6,95.4,640.9,95.4,637.3 M95.4,590.5v-17
		c0-3.6-1.6-5.3-4.9-5.3v27.6C93.8,595.7,95.4,594,95.4,590.5z M73,655.5V555.2h20.6c5,0,9.2,1.4,12.9,4.2c3.6,2.9,5.5,7.4,5.5,13.6
		v13.9c0,7-3.4,12-10.2,14.9c7.3,2.1,10.8,7,10.8,14.5v19.5c0,6.6-1.7,11.6-5.1,14.8c-3.4,3.3-7.5,5-12.3,5H73z"/>
	<path class="st8" d="M283.2,578.9l-8.8,30.8l-4.3,15.4v30.3h-13.4v-29.6c-0.3-2.7-1.4-8.1-3.4-15.9c-1.7-6.7-4.3-17.1-7.7-31.1
		h12.8l6,26.9l6.9-26.9H283.2z M244.2,588.8h-7.5v66.6h-13.4v-66.6h-7.5v-10h28.3V588.8z M182.2,578.9h13.4v64.2
		c0,1.5,0.8,2.3,2.3,2.3c1.5,0,2.2-0.8,2.2-2.3v-64.2h13.4v63.3c0,4.4-1.5,7.9-4.3,10.3c-3,2.4-6.7,3.6-11.2,3.6
		c-4.3,0-7.9-1.1-11-3.3c-3.1-2.2-4.7-5.7-4.7-10.5V578.9z M163.6,624.3l-1.9-22.9l-1.8,22.9H163.6z M180.2,655.5h-13.3l-2.3-20.6
		h-5.9l-2.3,20.6h-13.3l10-76.6h17L180.2,655.5z M141.9,655.5h-26.2v-76.6h26v9.8h-12.6v20.7h11.4v9.3h-11.4v26.9h12.8V655.5z"/>
	<polygon class="st8" points="346.5,655.5 330.9,655.5 330.9,599.2 321.8,655.5 309.7,655.5 299.2,599.2 299.2,655.5 285.6,655.5 
		285.6,555.2 308.1,555.2 316.1,607.2 323,555.2 346.5,555.2 	"/>
	<path class="st8" d="M395.2,641.6v-48.8c0-2.7-1.3-4-3.8-4v56.9C393.9,645.6,395.2,644.3,395.2,641.6 M378,655.5v-76.6h16.7
		c3.6,0,6.9,1.2,9.6,3.7c2.9,2.4,4.3,6.2,4.3,11.4v46.4c0,4.7-1.3,8.4-4,11.2c-2.6,2.6-5.9,3.9-9.8,3.9H378z M376,655.5h-26.2v-76.6
		h26v9.8h-12.6v20.7h11.4v9.3h-11.4v26.9H376V655.5z"/>
</g>
</svg>
